<mxfile host="app.diagrams.net" modified="2024-04-22T23:06:02.516Z" agent="Mozilla/5.0 (Windows NT 10.0; Win64; x64) AppleWebKit/537.36 (KHTML, like Gecko) Chrome/123.0.0.0 Safari/537.36" etag="5QP-7pNXI3wyGqsNl9_r" version="24.2.8" type="device" pages="2">
  <diagram name="home.page" id="76tIOucN7_sZw3PYZckv">
    <mxGraphModel dx="1434" dy="746" grid="1" gridSize="10" guides="1" tooltips="1" connect="1" arrows="1" fold="1" page="1" pageScale="1" pageWidth="850" pageHeight="1100" math="0" shadow="0">
      <root>
        <mxCell id="0" />
        <mxCell id="1" parent="0" />
        <mxCell id="iZrrjGmoKsLrjaB48vBP-1" value="" style="rounded=0;whiteSpace=wrap;html=1;" parent="1" vertex="1">
          <mxGeometry x="360" y="360" width="700" height="1720" as="geometry" />
        </mxCell>
        <mxCell id="iZrrjGmoKsLrjaB48vBP-2" value="" style="rounded=0;whiteSpace=wrap;html=1;" parent="1" vertex="1">
          <mxGeometry x="360" y="360" width="700" height="40" as="geometry" />
        </mxCell>
        <mxCell id="iZrrjGmoKsLrjaB48vBP-3" value="Text" style="text;html=1;strokeColor=none;fillColor=none;align=center;verticalAlign=middle;whiteSpace=wrap;rounded=0;" parent="1" vertex="1">
          <mxGeometry x="990" y="365" width="60" height="30" as="geometry" />
        </mxCell>
        <mxCell id="iZrrjGmoKsLrjaB48vBP-4" value="Text" style="text;html=1;strokeColor=none;fillColor=none;align=center;verticalAlign=middle;whiteSpace=wrap;rounded=0;" parent="1" vertex="1">
          <mxGeometry x="920" y="365" width="60" height="30" as="geometry" />
        </mxCell>
        <mxCell id="iZrrjGmoKsLrjaB48vBP-5" value="Text" style="text;html=1;strokeColor=none;fillColor=none;align=center;verticalAlign=middle;whiteSpace=wrap;rounded=0;" parent="1" vertex="1">
          <mxGeometry x="860" y="365" width="60" height="30" as="geometry" />
        </mxCell>
        <mxCell id="iZrrjGmoKsLrjaB48vBP-6" value="" style="rounded=0;whiteSpace=wrap;html=1;" parent="1" vertex="1">
          <mxGeometry x="360" y="400" width="700" height="300" as="geometry" />
        </mxCell>
        <mxCell id="iZrrjGmoKsLrjaB48vBP-7" value="" style="rounded=1;whiteSpace=wrap;html=1;arcSize=50;" parent="1" vertex="1">
          <mxGeometry x="600" y="580" width="220" height="30" as="geometry" />
        </mxCell>
        <mxCell id="iZrrjGmoKsLrjaB48vBP-8" value="Search" style="text;html=1;strokeColor=none;fillColor=none;align=center;verticalAlign=middle;whiteSpace=wrap;rounded=0;" parent="1" vertex="1">
          <mxGeometry x="680" y="580" width="60" height="30" as="geometry" />
        </mxCell>
        <mxCell id="iZrrjGmoKsLrjaB48vBP-9" value="&lt;font style=&quot;font-size: 25px;&quot;&gt;Bokhandel&lt;/font&gt;" style="text;html=1;strokeColor=none;fillColor=none;align=center;verticalAlign=middle;whiteSpace=wrap;rounded=0;" parent="1" vertex="1">
          <mxGeometry x="630" y="430" width="160" height="80" as="geometry" />
        </mxCell>
        <mxCell id="iZrrjGmoKsLrjaB48vBP-11" value="" style="rounded=1;whiteSpace=wrap;html=1;arcSize=50;" parent="1" vertex="1">
          <mxGeometry x="665" y="630" width="90" height="30" as="geometry" />
        </mxCell>
        <mxCell id="iZrrjGmoKsLrjaB48vBP-12" value="Search" style="text;html=1;strokeColor=none;fillColor=none;align=center;verticalAlign=middle;whiteSpace=wrap;rounded=0;" parent="1" vertex="1">
          <mxGeometry x="680" y="630" width="60" height="30" as="geometry" />
        </mxCell>
        <mxCell id="iZrrjGmoKsLrjaB48vBP-13" value="" style="rounded=0;whiteSpace=wrap;html=1;" parent="1" vertex="1">
          <mxGeometry x="360" y="700" width="700" height="300" as="geometry" />
        </mxCell>
        <mxCell id="iZrrjGmoKsLrjaB48vBP-14" value="" style="rounded=0;whiteSpace=wrap;html=1;" parent="1" vertex="1">
          <mxGeometry x="380" y="780" width="120" height="190" as="geometry" />
        </mxCell>
        <mxCell id="iZrrjGmoKsLrjaB48vBP-16" value="" style="rounded=0;whiteSpace=wrap;html=1;" parent="1" vertex="1">
          <mxGeometry x="560" y="780" width="120" height="190" as="geometry" />
        </mxCell>
        <mxCell id="iZrrjGmoKsLrjaB48vBP-18" value="" style="rounded=0;whiteSpace=wrap;html=1;" parent="1" vertex="1">
          <mxGeometry x="740" y="780" width="120" height="190" as="geometry" />
        </mxCell>
        <mxCell id="iZrrjGmoKsLrjaB48vBP-20" value="" style="rounded=0;whiteSpace=wrap;html=1;" parent="1" vertex="1">
          <mxGeometry x="380" y="780" width="120" height="100" as="geometry" />
        </mxCell>
        <mxCell id="iZrrjGmoKsLrjaB48vBP-21" value="" style="image;aspect=fixed;html=1;points=[];align=center;fontSize=12;image=img/lib/azure2/general/Image.svg;" parent="1" vertex="1">
          <mxGeometry x="396.37" y="800" width="87.27" height="60" as="geometry" />
        </mxCell>
        <mxCell id="iZrrjGmoKsLrjaB48vBP-22" value="Titel" style="text;html=1;strokeColor=none;fillColor=none;align=center;verticalAlign=middle;whiteSpace=wrap;rounded=0;" parent="1" vertex="1">
          <mxGeometry x="410" y="880" width="60" height="30" as="geometry" />
        </mxCell>
        <mxCell id="iZrrjGmoKsLrjaB48vBP-23" value="Pris" style="text;html=1;strokeColor=none;fillColor=none;align=center;verticalAlign=middle;whiteSpace=wrap;rounded=0;" parent="1" vertex="1">
          <mxGeometry x="410" y="910" width="60" height="30" as="geometry" />
        </mxCell>
        <mxCell id="iZrrjGmoKsLrjaB48vBP-24" value="Rating" style="text;html=1;strokeColor=none;fillColor=none;align=center;verticalAlign=middle;whiteSpace=wrap;rounded=0;" parent="1" vertex="1">
          <mxGeometry x="410" y="940" width="60" height="30" as="geometry" />
        </mxCell>
        <mxCell id="iZrrjGmoKsLrjaB48vBP-25" value="" style="rounded=0;whiteSpace=wrap;html=1;" parent="1" vertex="1">
          <mxGeometry x="560" y="780" width="120" height="100" as="geometry" />
        </mxCell>
        <mxCell id="iZrrjGmoKsLrjaB48vBP-26" value="" style="image;aspect=fixed;html=1;points=[];align=center;fontSize=12;image=img/lib/azure2/general/Image.svg;" parent="1" vertex="1">
          <mxGeometry x="576.37" y="800" width="87.27" height="60" as="geometry" />
        </mxCell>
        <mxCell id="iZrrjGmoKsLrjaB48vBP-27" value="Titel" style="text;html=1;strokeColor=none;fillColor=none;align=center;verticalAlign=middle;whiteSpace=wrap;rounded=0;" parent="1" vertex="1">
          <mxGeometry x="590" y="880" width="60" height="30" as="geometry" />
        </mxCell>
        <mxCell id="iZrrjGmoKsLrjaB48vBP-28" value="Pris" style="text;html=1;strokeColor=none;fillColor=none;align=center;verticalAlign=middle;whiteSpace=wrap;rounded=0;" parent="1" vertex="1">
          <mxGeometry x="590" y="910" width="60" height="30" as="geometry" />
        </mxCell>
        <mxCell id="iZrrjGmoKsLrjaB48vBP-29" value="Rating" style="text;html=1;strokeColor=none;fillColor=none;align=center;verticalAlign=middle;whiteSpace=wrap;rounded=0;" parent="1" vertex="1">
          <mxGeometry x="590" y="940" width="60" height="30" as="geometry" />
        </mxCell>
        <mxCell id="iZrrjGmoKsLrjaB48vBP-30" value="" style="rounded=0;whiteSpace=wrap;html=1;" parent="1" vertex="1">
          <mxGeometry x="740" y="780" width="120" height="100" as="geometry" />
        </mxCell>
        <mxCell id="iZrrjGmoKsLrjaB48vBP-31" value="" style="image;aspect=fixed;html=1;points=[];align=center;fontSize=12;image=img/lib/azure2/general/Image.svg;" parent="1" vertex="1">
          <mxGeometry x="756.37" y="800" width="87.27" height="60" as="geometry" />
        </mxCell>
        <mxCell id="iZrrjGmoKsLrjaB48vBP-32" value="Titel" style="text;html=1;strokeColor=none;fillColor=none;align=center;verticalAlign=middle;whiteSpace=wrap;rounded=0;" parent="1" vertex="1">
          <mxGeometry x="770" y="880" width="60" height="30" as="geometry" />
        </mxCell>
        <mxCell id="iZrrjGmoKsLrjaB48vBP-33" value="Pris" style="text;html=1;strokeColor=none;fillColor=none;align=center;verticalAlign=middle;whiteSpace=wrap;rounded=0;" parent="1" vertex="1">
          <mxGeometry x="770" y="910" width="60" height="30" as="geometry" />
        </mxCell>
        <mxCell id="iZrrjGmoKsLrjaB48vBP-34" value="Rating" style="text;html=1;strokeColor=none;fillColor=none;align=center;verticalAlign=middle;whiteSpace=wrap;rounded=0;" parent="1" vertex="1">
          <mxGeometry x="770" y="940" width="60" height="30" as="geometry" />
        </mxCell>
        <mxCell id="iZrrjGmoKsLrjaB48vBP-40" value="" style="group" parent="1" vertex="1" connectable="0">
          <mxGeometry x="920" y="780" width="120" height="190" as="geometry" />
        </mxCell>
        <mxCell id="iZrrjGmoKsLrjaB48vBP-15" value="" style="rounded=0;whiteSpace=wrap;html=1;" parent="iZrrjGmoKsLrjaB48vBP-40" vertex="1">
          <mxGeometry width="120" height="190" as="geometry" />
        </mxCell>
        <mxCell id="iZrrjGmoKsLrjaB48vBP-35" value="" style="rounded=0;whiteSpace=wrap;html=1;" parent="iZrrjGmoKsLrjaB48vBP-40" vertex="1">
          <mxGeometry width="120" height="100" as="geometry" />
        </mxCell>
        <mxCell id="iZrrjGmoKsLrjaB48vBP-36" value="" style="image;aspect=fixed;html=1;points=[];align=center;fontSize=12;image=img/lib/azure2/general/Image.svg;" parent="iZrrjGmoKsLrjaB48vBP-40" vertex="1">
          <mxGeometry x="16.370000000000005" y="20" width="87.27" height="60" as="geometry" />
        </mxCell>
        <mxCell id="iZrrjGmoKsLrjaB48vBP-37" value="Titel" style="text;html=1;strokeColor=none;fillColor=none;align=center;verticalAlign=middle;whiteSpace=wrap;rounded=0;" parent="iZrrjGmoKsLrjaB48vBP-40" vertex="1">
          <mxGeometry x="30" y="100" width="60" height="30" as="geometry" />
        </mxCell>
        <mxCell id="iZrrjGmoKsLrjaB48vBP-38" value="Pris" style="text;html=1;strokeColor=none;fillColor=none;align=center;verticalAlign=middle;whiteSpace=wrap;rounded=0;" parent="iZrrjGmoKsLrjaB48vBP-40" vertex="1">
          <mxGeometry x="30" y="130" width="60" height="30" as="geometry" />
        </mxCell>
        <mxCell id="iZrrjGmoKsLrjaB48vBP-39" value="Rating" style="text;html=1;strokeColor=none;fillColor=none;align=center;verticalAlign=middle;whiteSpace=wrap;rounded=0;" parent="iZrrjGmoKsLrjaB48vBP-40" vertex="1">
          <mxGeometry x="30" y="160" width="60" height="30" as="geometry" />
        </mxCell>
        <mxCell id="iZrrjGmoKsLrjaB48vBP-41" value="" style="group" parent="1" vertex="1" connectable="0">
          <mxGeometry x="920" y="1080" width="120" height="190" as="geometry" />
        </mxCell>
        <mxCell id="iZrrjGmoKsLrjaB48vBP-42" value="" style="rounded=0;whiteSpace=wrap;html=1;" parent="iZrrjGmoKsLrjaB48vBP-41" vertex="1">
          <mxGeometry width="120" height="190" as="geometry" />
        </mxCell>
        <mxCell id="iZrrjGmoKsLrjaB48vBP-43" value="" style="rounded=0;whiteSpace=wrap;html=1;" parent="iZrrjGmoKsLrjaB48vBP-41" vertex="1">
          <mxGeometry width="120" height="100" as="geometry" />
        </mxCell>
        <mxCell id="iZrrjGmoKsLrjaB48vBP-44" value="" style="image;aspect=fixed;html=1;points=[];align=center;fontSize=12;image=img/lib/azure2/general/Image.svg;" parent="iZrrjGmoKsLrjaB48vBP-41" vertex="1">
          <mxGeometry x="16.370000000000005" y="20" width="87.27" height="60" as="geometry" />
        </mxCell>
        <mxCell id="iZrrjGmoKsLrjaB48vBP-45" value="Titel" style="text;html=1;strokeColor=none;fillColor=none;align=center;verticalAlign=middle;whiteSpace=wrap;rounded=0;" parent="iZrrjGmoKsLrjaB48vBP-41" vertex="1">
          <mxGeometry x="30" y="100" width="60" height="30" as="geometry" />
        </mxCell>
        <mxCell id="iZrrjGmoKsLrjaB48vBP-46" value="Pris" style="text;html=1;strokeColor=none;fillColor=none;align=center;verticalAlign=middle;whiteSpace=wrap;rounded=0;" parent="iZrrjGmoKsLrjaB48vBP-41" vertex="1">
          <mxGeometry x="30" y="130" width="60" height="30" as="geometry" />
        </mxCell>
        <mxCell id="iZrrjGmoKsLrjaB48vBP-47" value="Rating" style="text;html=1;strokeColor=none;fillColor=none;align=center;verticalAlign=middle;whiteSpace=wrap;rounded=0;" parent="iZrrjGmoKsLrjaB48vBP-41" vertex="1">
          <mxGeometry x="30" y="160" width="60" height="30" as="geometry" />
        </mxCell>
        <mxCell id="iZrrjGmoKsLrjaB48vBP-48" value="&lt;font style=&quot;font-size: 20px;&quot;&gt;Nya böcker&lt;/font&gt;" style="text;html=1;strokeColor=none;fillColor=none;align=center;verticalAlign=middle;whiteSpace=wrap;rounded=0;" parent="1" vertex="1">
          <mxGeometry x="650" y="720" width="120" height="30" as="geometry" />
        </mxCell>
        <mxCell id="iZrrjGmoKsLrjaB48vBP-49" value="&lt;font style=&quot;font-size: 20px;&quot;&gt;Featured books&lt;/font&gt;" style="text;html=1;strokeColor=none;fillColor=none;align=center;verticalAlign=middle;whiteSpace=wrap;rounded=0;" parent="1" vertex="1">
          <mxGeometry x="630" y="1020" width="160" height="30" as="geometry" />
        </mxCell>
        <mxCell id="iZrrjGmoKsLrjaB48vBP-50" value="" style="group" parent="1" vertex="1" connectable="0">
          <mxGeometry x="740" y="1080" width="120" height="190" as="geometry" />
        </mxCell>
        <mxCell id="iZrrjGmoKsLrjaB48vBP-51" value="" style="rounded=0;whiteSpace=wrap;html=1;" parent="iZrrjGmoKsLrjaB48vBP-50" vertex="1">
          <mxGeometry width="120" height="190" as="geometry" />
        </mxCell>
        <mxCell id="iZrrjGmoKsLrjaB48vBP-52" value="" style="rounded=0;whiteSpace=wrap;html=1;" parent="iZrrjGmoKsLrjaB48vBP-50" vertex="1">
          <mxGeometry width="120" height="100" as="geometry" />
        </mxCell>
        <mxCell id="iZrrjGmoKsLrjaB48vBP-53" value="" style="image;aspect=fixed;html=1;points=[];align=center;fontSize=12;image=img/lib/azure2/general/Image.svg;" parent="iZrrjGmoKsLrjaB48vBP-50" vertex="1">
          <mxGeometry x="16.370000000000005" y="20" width="87.27" height="60" as="geometry" />
        </mxCell>
        <mxCell id="iZrrjGmoKsLrjaB48vBP-54" value="Titel" style="text;html=1;strokeColor=none;fillColor=none;align=center;verticalAlign=middle;whiteSpace=wrap;rounded=0;" parent="iZrrjGmoKsLrjaB48vBP-50" vertex="1">
          <mxGeometry x="30" y="100" width="60" height="30" as="geometry" />
        </mxCell>
        <mxCell id="iZrrjGmoKsLrjaB48vBP-55" value="Pris" style="text;html=1;strokeColor=none;fillColor=none;align=center;verticalAlign=middle;whiteSpace=wrap;rounded=0;" parent="iZrrjGmoKsLrjaB48vBP-50" vertex="1">
          <mxGeometry x="30" y="130" width="60" height="30" as="geometry" />
        </mxCell>
        <mxCell id="iZrrjGmoKsLrjaB48vBP-56" value="Rating" style="text;html=1;strokeColor=none;fillColor=none;align=center;verticalAlign=middle;whiteSpace=wrap;rounded=0;" parent="iZrrjGmoKsLrjaB48vBP-50" vertex="1">
          <mxGeometry x="30" y="160" width="60" height="30" as="geometry" />
        </mxCell>
        <mxCell id="iZrrjGmoKsLrjaB48vBP-57" value="" style="group" parent="1" vertex="1" connectable="0">
          <mxGeometry x="560" y="1080" width="120" height="190" as="geometry" />
        </mxCell>
        <mxCell id="iZrrjGmoKsLrjaB48vBP-58" value="" style="rounded=0;whiteSpace=wrap;html=1;" parent="iZrrjGmoKsLrjaB48vBP-57" vertex="1">
          <mxGeometry width="120" height="190" as="geometry" />
        </mxCell>
        <mxCell id="iZrrjGmoKsLrjaB48vBP-59" value="" style="rounded=0;whiteSpace=wrap;html=1;" parent="iZrrjGmoKsLrjaB48vBP-57" vertex="1">
          <mxGeometry width="120" height="100" as="geometry" />
        </mxCell>
        <mxCell id="iZrrjGmoKsLrjaB48vBP-60" value="" style="image;aspect=fixed;html=1;points=[];align=center;fontSize=12;image=img/lib/azure2/general/Image.svg;" parent="iZrrjGmoKsLrjaB48vBP-57" vertex="1">
          <mxGeometry x="16.370000000000005" y="20" width="87.27" height="60" as="geometry" />
        </mxCell>
        <mxCell id="iZrrjGmoKsLrjaB48vBP-61" value="Titel" style="text;html=1;strokeColor=none;fillColor=none;align=center;verticalAlign=middle;whiteSpace=wrap;rounded=0;" parent="iZrrjGmoKsLrjaB48vBP-57" vertex="1">
          <mxGeometry x="30" y="100" width="60" height="30" as="geometry" />
        </mxCell>
        <mxCell id="iZrrjGmoKsLrjaB48vBP-62" value="Pris" style="text;html=1;strokeColor=none;fillColor=none;align=center;verticalAlign=middle;whiteSpace=wrap;rounded=0;" parent="iZrrjGmoKsLrjaB48vBP-57" vertex="1">
          <mxGeometry x="30" y="130" width="60" height="30" as="geometry" />
        </mxCell>
        <mxCell id="iZrrjGmoKsLrjaB48vBP-63" value="Rating" style="text;html=1;strokeColor=none;fillColor=none;align=center;verticalAlign=middle;whiteSpace=wrap;rounded=0;" parent="iZrrjGmoKsLrjaB48vBP-57" vertex="1">
          <mxGeometry x="30" y="160" width="60" height="30" as="geometry" />
        </mxCell>
        <mxCell id="iZrrjGmoKsLrjaB48vBP-64" value="" style="group" parent="1" vertex="1" connectable="0">
          <mxGeometry x="380" y="1080" width="120" height="190" as="geometry" />
        </mxCell>
        <mxCell id="iZrrjGmoKsLrjaB48vBP-65" value="" style="rounded=0;whiteSpace=wrap;html=1;" parent="iZrrjGmoKsLrjaB48vBP-64" vertex="1">
          <mxGeometry width="120" height="190" as="geometry" />
        </mxCell>
        <mxCell id="iZrrjGmoKsLrjaB48vBP-66" value="" style="rounded=0;whiteSpace=wrap;html=1;" parent="iZrrjGmoKsLrjaB48vBP-64" vertex="1">
          <mxGeometry width="120" height="100" as="geometry" />
        </mxCell>
        <mxCell id="iZrrjGmoKsLrjaB48vBP-67" value="" style="image;aspect=fixed;html=1;points=[];align=center;fontSize=12;image=img/lib/azure2/general/Image.svg;" parent="iZrrjGmoKsLrjaB48vBP-64" vertex="1">
          <mxGeometry x="16.370000000000005" y="20" width="87.27" height="60" as="geometry" />
        </mxCell>
        <mxCell id="iZrrjGmoKsLrjaB48vBP-68" value="Titel" style="text;html=1;strokeColor=none;fillColor=none;align=center;verticalAlign=middle;whiteSpace=wrap;rounded=0;" parent="iZrrjGmoKsLrjaB48vBP-64" vertex="1">
          <mxGeometry x="30" y="100" width="60" height="30" as="geometry" />
        </mxCell>
        <mxCell id="iZrrjGmoKsLrjaB48vBP-69" value="Pris" style="text;html=1;strokeColor=none;fillColor=none;align=center;verticalAlign=middle;whiteSpace=wrap;rounded=0;" parent="iZrrjGmoKsLrjaB48vBP-64" vertex="1">
          <mxGeometry x="30" y="130" width="60" height="30" as="geometry" />
        </mxCell>
        <mxCell id="iZrrjGmoKsLrjaB48vBP-70" value="Rating" style="text;html=1;strokeColor=none;fillColor=none;align=center;verticalAlign=middle;whiteSpace=wrap;rounded=0;" parent="iZrrjGmoKsLrjaB48vBP-64" vertex="1">
          <mxGeometry x="30" y="160" width="60" height="30" as="geometry" />
        </mxCell>
        <mxCell id="iZrrjGmoKsLrjaB48vBP-71" value="" style="rounded=0;whiteSpace=wrap;html=1;" parent="1" vertex="1">
          <mxGeometry x="360" y="1320" width="700" height="350" as="geometry" />
        </mxCell>
        <mxCell id="iZrrjGmoKsLrjaB48vBP-72" value="" style="rounded=0;whiteSpace=wrap;html=1;" parent="1" vertex="1">
          <mxGeometry x="360" y="1320" width="350" height="350" as="geometry" />
        </mxCell>
        <mxCell id="iZrrjGmoKsLrjaB48vBP-74" value="om oss" style="text;html=1;strokeColor=none;fillColor=none;align=center;verticalAlign=middle;whiteSpace=wrap;rounded=0;" parent="1" vertex="1">
          <mxGeometry x="860" y="1365" width="60" height="30" as="geometry" />
        </mxCell>
        <mxCell id="iZrrjGmoKsLrjaB48vBP-76" value="" style="ellipse;whiteSpace=wrap;html=1;aspect=fixed;" parent="1" vertex="1">
          <mxGeometry x="435" y="1395" width="200" height="200" as="geometry" />
        </mxCell>
        <mxCell id="iZrrjGmoKsLrjaB48vBP-77" value="" style="image;sketch=0;aspect=fixed;html=1;points=[];align=center;fontSize=12;image=img/lib/mscae/Person.svg;" parent="1" vertex="1">
          <mxGeometry x="488.75" y="1432.5" width="92.5" height="125" as="geometry" />
        </mxCell>
        <mxCell id="iZrrjGmoKsLrjaB48vBP-78" value="" style="rounded=0;whiteSpace=wrap;html=1;" parent="1" vertex="1">
          <mxGeometry x="360" y="1670" width="350" height="350" as="geometry" />
        </mxCell>
        <mxCell id="iZrrjGmoKsLrjaB48vBP-79" value="" style="rounded=0;whiteSpace=wrap;html=1;" parent="1" vertex="1">
          <mxGeometry x="710" y="1670" width="350" height="350" as="geometry" />
        </mxCell>
        <mxCell id="iZrrjGmoKsLrjaB48vBP-80" value="Kontakt uppgifter" style="text;html=1;strokeColor=none;fillColor=none;align=center;verticalAlign=middle;whiteSpace=wrap;rounded=0;" parent="1" vertex="1">
          <mxGeometry x="487.5" y="1720" width="95" height="30" as="geometry" />
        </mxCell>
        <mxCell id="iZrrjGmoKsLrjaB48vBP-82" value="&lt;h1&gt;&lt;br&gt;&lt;/h1&gt;&lt;p&gt;Lorem ipsum dolor sit amet, consectetur adipisicing elit, sed do eiusmod tempor incididunt ut labore et dolore magna aliqua.&lt;/p&gt;" style="text;html=1;strokeColor=none;fillColor=none;spacing=5;spacingTop=-20;whiteSpace=wrap;overflow=hidden;rounded=0;" parent="1" vertex="1">
          <mxGeometry x="795" y="1400" width="190" height="120" as="geometry" />
        </mxCell>
        <mxCell id="iZrrjGmoKsLrjaB48vBP-75" value="&lt;h1&gt;&lt;span style=&quot;background-color: initial; font-size: 12px; font-weight: normal;&quot;&gt;Lorem ipsum dolor sit amet, consectetur adipisicing elit, sed do eiusmod tempor incididunt ut labore et dolore magna aliqua.&lt;/span&gt;&lt;br&gt;&lt;/h1&gt;" style="text;html=1;strokeColor=none;fillColor=none;spacing=5;spacingTop=-20;whiteSpace=wrap;overflow=hidden;rounded=0;" parent="1" vertex="1">
          <mxGeometry x="450" y="1790" width="190" height="120" as="geometry" />
        </mxCell>
        <mxCell id="iZrrjGmoKsLrjaB48vBP-83" value="" style="shape=image;html=1;verticalAlign=top;verticalLabelPosition=bottom;labelBackgroundColor=#ffffff;imageAspect=0;aspect=fixed;image=https://cdn4.iconfinder.com/data/icons/flatified/128/map.png" parent="1" vertex="1">
          <mxGeometry x="780" y="1740" width="220" height="220" as="geometry" />
        </mxCell>
        <mxCell id="iZrrjGmoKsLrjaB48vBP-84" value="Foooter" style="text;html=1;strokeColor=none;fillColor=none;align=center;verticalAlign=middle;whiteSpace=wrap;rounded=0;" parent="1" vertex="1">
          <mxGeometry x="680" y="2040" width="60" height="30" as="geometry" />
        </mxCell>
      </root>
    </mxGraphModel>
  </diagram>
  <diagram id="vIYViaBVw13LxOcoIEZk" name="flowchart">
    <mxGraphModel dx="3134" dy="746" grid="1" gridSize="10" guides="1" tooltips="1" connect="1" arrows="1" fold="1" page="1" pageScale="1" pageWidth="850" pageHeight="1100" math="0" shadow="0">
      <root>
        <mxCell id="0" />
        <mxCell id="1" parent="0" />
        <mxCell id="bOaMTkq2fiwJ9Cdkh7bz-3" style="edgeStyle=orthogonalEdgeStyle;rounded=0;orthogonalLoop=1;jettySize=auto;html=1;entryX=0;entryY=0.5;entryDx=0;entryDy=0;" parent="1" source="VeWPwlOGxFKslaNG0pev-1" target="bOaMTkq2fiwJ9Cdkh7bz-2" edge="1">
          <mxGeometry relative="1" as="geometry" />
        </mxCell>
        <mxCell id="VeWPwlOGxFKslaNG0pev-1" value="" style="rounded=0;whiteSpace=wrap;html=1;" parent="1" vertex="1">
          <mxGeometry x="320" y="580" width="160" height="150" as="geometry" />
        </mxCell>
        <mxCell id="VeWPwlOGxFKslaNG0pev-2" value="&lt;font style=&quot;font-size: 17px;&quot;&gt;Index&lt;/font&gt;" style="text;html=1;strokeColor=none;fillColor=none;align=center;verticalAlign=middle;whiteSpace=wrap;rounded=0;" parent="1" vertex="1">
          <mxGeometry x="370" y="540" width="60" height="30" as="geometry" />
        </mxCell>
        <mxCell id="VeWPwlOGxFKslaNG0pev-4" value="searchbooks" style="text;html=1;strokeColor=none;fillColor=none;align=center;verticalAlign=middle;whiteSpace=wrap;rounded=0;" parent="1" vertex="1">
          <mxGeometry x="370" y="590" width="60" height="30" as="geometry" />
        </mxCell>
        <mxCell id="VeWPwlOGxFKslaNG0pev-5" value="featchlatestbooks" style="text;html=1;strokeColor=none;fillColor=none;align=center;verticalAlign=middle;whiteSpace=wrap;rounded=0;" parent="1" vertex="1">
          <mxGeometry x="370" y="620" width="60" height="30" as="geometry" />
        </mxCell>
        <mxCell id="bOaMTkq2fiwJ9Cdkh7bz-2" value="" style="rounded=0;whiteSpace=wrap;html=1;" parent="1" vertex="1">
          <mxGeometry x="580" y="580" width="160" height="150" as="geometry" />
        </mxCell>
        <mxCell id="bOaMTkq2fiwJ9Cdkh7bz-4" value="single_book" style="text;html=1;strokeColor=none;fillColor=none;align=center;verticalAlign=middle;whiteSpace=wrap;rounded=0;" parent="1" vertex="1">
          <mxGeometry x="630" y="540" width="60" height="30" as="geometry" />
        </mxCell>
        <mxCell id="bOaMTkq2fiwJ9Cdkh7bz-5" value="featchbook" style="text;html=1;strokeColor=none;fillColor=none;align=center;verticalAlign=middle;whiteSpace=wrap;rounded=0;" parent="1" vertex="1">
          <mxGeometry x="630" y="620" width="60" height="30" as="geometry" />
        </mxCell>
        <mxCell id="bOaMTkq2fiwJ9Cdkh7bz-8" value="&lt;font style=&quot;font-size: 17px;&quot;&gt;Login_page&lt;/font&gt;" style="text;html=1;strokeColor=none;fillColor=none;align=center;verticalAlign=middle;whiteSpace=wrap;rounded=0;" parent="1" vertex="1">
          <mxGeometry x="-60" y="560" width="60" height="30" as="geometry" />
        </mxCell>
        <mxCell id="bOaMTkq2fiwJ9Cdkh7bz-9" style="edgeStyle=orthogonalEdgeStyle;rounded=0;orthogonalLoop=1;jettySize=auto;html=1;" parent="1" source="bOaMTkq2fiwJ9Cdkh7bz-10" target="bOaMTkq2fiwJ9Cdkh7bz-11" edge="1">
          <mxGeometry relative="1" as="geometry" />
        </mxCell>
        <mxCell id="bOaMTkq2fiwJ9Cdkh7bz-10" value="Logout()&lt;br&gt;Fetch user ()&lt;br&gt;checkLoginStatus()&lt;br&gt;checkRole()" style="rounded=0;whiteSpace=wrap;html=1;" parent="1" vertex="1">
          <mxGeometry x="-520" y="890" width="240" height="230" as="geometry" />
        </mxCell>
        <mxCell id="bOaMTkq2fiwJ9Cdkh7bz-11" value="Logout()&lt;br&gt;&amp;nbsp;Update user info()&lt;br&gt;checkLoginStatus()&lt;br&gt;checkRole()" style="rounded=0;whiteSpace=wrap;html=1;" parent="1" vertex="1">
          <mxGeometry x="-920" y="890" width="240" height="230" as="geometry" />
        </mxCell>
        <mxCell id="bOaMTkq2fiwJ9Cdkh7bz-15" style="edgeStyle=orthogonalEdgeStyle;rounded=0;orthogonalLoop=1;jettySize=auto;html=1;" parent="1" source="bOaMTkq2fiwJ9Cdkh7bz-12" edge="1">
          <mxGeometry relative="1" as="geometry">
            <mxPoint x="-270" y="1005" as="targetPoint" />
          </mxGeometry>
        </mxCell>
        <mxCell id="bOaMTkq2fiwJ9Cdkh7bz-12" value="Logout()&lt;br&gt;checkLoginStatus()&lt;br&gt;checkRole()&lt;br&gt;&lt;br&gt;&lt;div&gt;&lt;br&gt;&lt;/div&gt;" style="rounded=0;whiteSpace=wrap;html=1;" parent="1" vertex="1">
          <mxGeometry x="-150" y="890" width="240" height="230" as="geometry" />
        </mxCell>
        <mxCell id="bOaMTkq2fiwJ9Cdkh7bz-16" style="edgeStyle=orthogonalEdgeStyle;rounded=0;orthogonalLoop=1;jettySize=auto;html=1;entryX=0.5;entryY=0;entryDx=0;entryDy=0;" parent="1" source="bOaMTkq2fiwJ9Cdkh7bz-14" target="bOaMTkq2fiwJ9Cdkh7bz-12" edge="1">
          <mxGeometry relative="1" as="geometry" />
        </mxCell>
        <mxCell id="bOaMTkq2fiwJ9Cdkh7bz-14" value="Login()&lt;br&gt;CheckloginStatus()" style="rounded=0;whiteSpace=wrap;html=1;" parent="1" vertex="1">
          <mxGeometry x="-150" y="610" width="240" height="230" as="geometry" />
        </mxCell>
        <mxCell id="bOaMTkq2fiwJ9Cdkh7bz-18" value="createuser" style="text;html=1;strokeColor=none;fillColor=none;align=center;verticalAlign=middle;whiteSpace=wrap;rounded=0;" parent="1" vertex="1">
          <mxGeometry x="-430" y="1030" width="60" height="30" as="geometry" />
        </mxCell>
        <mxCell id="bOaMTkq2fiwJ9Cdkh7bz-19" value="featchpopcategoris" style="text;html=1;strokeColor=none;fillColor=none;align=center;verticalAlign=middle;whiteSpace=wrap;rounded=0;" parent="1" vertex="1">
          <mxGeometry x="370" y="650" width="60" height="30" as="geometry" />
        </mxCell>
        <mxCell id="bOaMTkq2fiwJ9Cdkh7bz-20" value="featchfeaturedbooks" style="text;html=1;strokeColor=none;fillColor=none;align=center;verticalAlign=middle;whiteSpace=wrap;rounded=0;" parent="1" vertex="1">
          <mxGeometry x="370" y="680" width="60" height="30" as="geometry" />
        </mxCell>
        <mxCell id="ZPY_N_mSAc72i494tLjH-1" value="searchbooks" style="text;html=1;strokeColor=none;fillColor=none;align=center;verticalAlign=middle;whiteSpace=wrap;rounded=0;" vertex="1" parent="1">
          <mxGeometry x="630" y="590" width="60" height="30" as="geometry" />
        </mxCell>
        <mxCell id="ZPY_N_mSAc72i494tLjH-2" value="featchbookinformation" style="rounded=0;whiteSpace=wrap;html=1;" vertex="1" parent="1">
          <mxGeometry x="170" y="890" width="240" height="230" as="geometry" />
        </mxCell>
        <mxCell id="ZPY_N_mSAc72i494tLjH-3" style="edgeStyle=orthogonalEdgeStyle;rounded=0;orthogonalLoop=1;jettySize=auto;html=1;" edge="1" parent="1">
          <mxGeometry relative="1" as="geometry">
            <mxPoint x="90" y="1000" as="sourcePoint" />
            <mxPoint x="160" y="1000" as="targetPoint" />
          </mxGeometry>
        </mxCell>
        <mxCell id="ZPY_N_mSAc72i494tLjH-4" value="singlebook" style="text;html=1;align=center;verticalAlign=middle;resizable=0;points=[];autosize=1;strokeColor=none;fillColor=none;" vertex="1" parent="1">
          <mxGeometry x="260" y="850" width="80" height="30" as="geometry" />
        </mxCell>
        <mxCell id="ZPY_N_mSAc72i494tLjH-5" value="everybook" style="text;html=1;align=center;verticalAlign=middle;resizable=0;points=[];autosize=1;strokeColor=none;fillColor=none;" vertex="1" parent="1">
          <mxGeometry x="250" y="1020" width="80" height="30" as="geometry" />
        </mxCell>
        <mxCell id="ZPY_N_mSAc72i494tLjH-6" value="&lt;span style=&quot;color: rgb(0, 0, 0); font-family: Helvetica; font-size: 12px; font-style: normal; font-variant-ligatures: normal; font-variant-caps: normal; font-weight: 400; letter-spacing: normal; orphans: 2; text-align: center; text-indent: 0px; text-transform: none; widows: 2; word-spacing: 0px; -webkit-text-stroke-width: 0px; white-space: normal; background-color: rgb(251, 251, 251); text-decoration-thickness: initial; text-decoration-style: initial; text-decoration-color: initial; display: inline !important; float: none;&quot;&gt;Logout()&lt;/span&gt;&lt;br style=&quot;forced-color-adjust: none; color: rgb(0, 0, 0); font-family: Helvetica; font-size: 12px; font-style: normal; font-variant-ligatures: normal; font-variant-caps: normal; font-weight: 400; letter-spacing: normal; orphans: 2; text-align: center; text-indent: 0px; text-transform: none; widows: 2; word-spacing: 0px; -webkit-text-stroke-width: 0px; white-space: normal; background-color: rgb(251, 251, 251); text-decoration-thickness: initial; text-decoration-style: initial; text-decoration-color: initial;&quot;&gt;" style="text;whiteSpace=wrap;html=1;" vertex="1" parent="1">
          <mxGeometry x="265" y="960" width="50" height="30" as="geometry" />
        </mxCell>
        <mxCell id="ZPY_N_mSAc72i494tLjH-8" value="deletebook" style="text;html=1;align=center;verticalAlign=middle;whiteSpace=wrap;rounded=0;" vertex="1" parent="1">
          <mxGeometry x="260" y="1050" width="60" height="30" as="geometry" />
        </mxCell>
        <mxCell id="ZPY_N_mSAc72i494tLjH-10" value="&lt;div&gt;updatebookinfo&lt;/div&gt;" style="rounded=0;whiteSpace=wrap;html=1;" vertex="1" parent="1">
          <mxGeometry x="480" y="890" width="240" height="230" as="geometry" />
        </mxCell>
        <mxCell id="ZPY_N_mSAc72i494tLjH-11" value="editbook" style="text;html=1;align=center;verticalAlign=middle;resizable=0;points=[];autosize=1;strokeColor=none;fillColor=none;" vertex="1" parent="1">
          <mxGeometry x="575" y="840" width="70" height="30" as="geometry" />
        </mxCell>
        <mxCell id="ZPY_N_mSAc72i494tLjH-12" style="edgeStyle=orthogonalEdgeStyle;rounded=0;orthogonalLoop=1;jettySize=auto;html=1;" edge="1" parent="1">
          <mxGeometry relative="1" as="geometry">
            <mxPoint x="410" y="1004.5" as="sourcePoint" />
            <mxPoint x="480" y="1004.5" as="targetPoint" />
          </mxGeometry>
        </mxCell>
      </root>
    </mxGraphModel>
  </diagram>
</mxfile>
